<?xml version="1.0" encoding="UTF-8" standalone="no"?>
<svg xmlns="http://www.w3.org/2000/svg" version="1.1" viewBox="0.00 0.00 1080.00 1080.00">
  <path fill="#000000" d="   M 540.25 298.00   C 559.04 298.00 576.43 297.66 594.01 298.59   Q 676.06 302.88 752.50 320.86   C 797.30 331.40 842.10 346.49 884.03 366.93   Q 911.85 380.50 937.08 397.92   C 973.94 423.37 1008.86 459.17 1021.46 503.39   Q 1034.30 548.47 1015.58 592.55   Q 1008.15 610.03 995.95 626.25   C 967.53 664.02 926.85 691.42 885.00 712.14   Q 874.72 717.24 866.92 720.66   Q 813.13 744.29 754.71 758.14   Q 668.40 778.61 576.93 781.65   Q 572.53 781.80 558.59 782.38   Q 549.38 782.77 540.25 782.77   Q 531.11 782.77 521.90 782.38   Q 507.96 781.80 503.56 781.65   Q 412.09 778.61 325.78 758.13   Q 267.36 744.28 213.57 720.65   Q 205.77 717.23 195.49 712.13   C 153.64 691.41 112.97 664.01 84.55 626.24   Q 72.35 610.02 64.92 592.54   Q 46.20 548.45 59.04 503.37   C 71.64 459.16 106.56 423.36 143.42 397.91   Q 168.65 380.49 196.47 366.92   C 238.41 346.48 283.21 331.39 328.01 320.85   Q 404.45 302.88 486.49 298.58   C 504.07 297.66 521.47 298.00 540.25 298.00   Z   M 93.39 539.75   C 93.39 572.77 112.77 602.36 135.84 624.36   C 158.90 646.33 185.88 663.46 214.56 677.42   C 255.48 697.32 299.17 711.71 343.16 721.60   C 407.50 736.06 473.59 742.82 540.25 742.82   C 606.91 742.82 673.00 736.06 737.34 721.60   C 781.33 711.71 825.02 697.32 865.94 677.42   C 894.62 663.46 921.60 646.33 944.66 624.36   C 967.73 602.36 987.11 572.77 987.11 539.76   C 987.11 506.74 967.73 477.15 944.66 455.16   C 921.60 433.18 894.62 416.05 865.94 402.09   C 825.02 382.19 781.33 367.80 737.34 357.91   C 673.00 343.45 606.91 336.69 540.25 336.69   C 473.59 336.69 407.50 343.45 343.16 357.91   C 299.17 367.80 255.48 382.19 214.56 402.09   C 185.88 416.05 158.90 433.18 135.84 455.15   C 112.77 477.15 93.39 506.74 93.39 539.75   Z"></path>
  <path fill="#000000" d="   M 354.30 542.83   Q 353.49 541.98 353.55 543.16   C 355.06 569.95 339.92 589.46 316.00 599.20   Q 300.44 605.53 281.56 605.45   C 258.32 605.34 236.49 598.27 227.76 575.27   Q 223.86 565.03 224.25 552.54   Q 224.74 536.49 229.26 520.03   Q 232.16 509.48 236.81 497.21   Q 236.99 496.75 237.46 496.89   L 260.21 503.54   A 0.59 0.59 0.0 0 1 260.61 504.25   Q 257.00 518.10 254.81 532.02   Q 253.56 539.91 253.69 546.74   Q 253.78 551.85 256.14 556.15   C 259.39 562.09 267.37 565.21 274.05 566.17   C 287.55 568.10 303.75 566.68 316.23 560.43   C 319.66 558.71 324.50 555.01 325.53 551.10   Q 325.87 549.84 325.82 547.85   Q 322.96 410.11 322.90 407.45   Q 322.89 406.83 323.50 406.77   L 353.04 403.91   A 0.49 0.48 87.3 0 1 353.57 404.40   Q 353.56 477.68 353.56 492.75   Q 353.56 494.86 354.47 498.54   Q 356.98 508.67 367.37 510.13   Q 375.54 511.28 384.52 510.13   C 393.67 508.96 397.99 503.51 399.09 494.64   Q 400.12 486.36 400.08 477.42   A 0.46 0.46 0.0 0 1 400.54 476.96   L 426.32 476.96   A 0.37 0.36 -0.0 0 1 426.69 477.32   L 426.69 503.65   Q 426.69 504.11 426.93 504.50   Q 428.90 507.67 430.88 508.50   Q 438.43 511.68 444.84 510.06   Q 449.89 508.79 451.94 503.97   Q 453.70 499.84 454.23 496.32   Q 455.45 488.16 455.45 477.46   A 0.50 0.50 0.0 0 1 455.95 476.96   L 481.76 476.96   Q 482.27 476.96 482.26 477.47   L 481.92 504.22   A 1.40 0.50 -82.6 0 0 482.11 505.09   C 485.40 509.33 491.60 510.85 497.29 510.56   Q 503.52 510.24 505.21 504.76   Q 506.71 499.88 507.21 493.52   Q 507.76 486.47 507.78 473.63   A 0.55 0.54 -0.0 0 1 508.33 473.09   L 533.83 473.09   Q 534.39 473.09 534.39 473.65   Q 534.49 493.31 534.49 495.74   Q 534.50 499.06 535.41 502.13   C 537.36 508.74 543.51 510.26 549.75 510.53   Q 562.35 511.09 569.01 509.44   C 572.26 508.64 575.75 507.33 575.93 503.75   Q 576.03 501.65 575.30 493.65   Q 573.79 477.26 572.06 463.68   A 0.54 0.53 -8.9 0 1 572.50 463.08   L 601.06 458.32   A 0.68 0.68 0.0 0 1 601.84 458.90   Q 603.78 473.86 605.09 488.43   C 606.48 503.91 605.93 520.46 595.70 533.17   C 584.52 547.06 566.96 549.79 549.52 549.07   C 537.65 548.58 527.53 545.59 521.06 535.04   Q 520.80 534.61 520.48 535.00   Q 517.80 538.22 517.02 539.05   Q 502.98 554.15 482.67 546.81   Q 473.32 543.43 467.49 535.71   Q 467.16 535.28 466.88 535.74   C 463.16 541.73 458.37 545.66 451.28 547.60   C 441.65 550.23 429.18 550.16 420.60 544.23   Q 415.15 540.47 411.27 534.84   Q 410.95 534.38 410.61 534.83   Q 402.42 545.99 389.00 548.17   Q 376.55 550.18 365.38 548.43   Q 358.63 547.37 354.30 542.83   Z"></path>
  <path fill="#000000" d="   M 620.83 406.83   L 650.73 403.93   A 0.38 0.38 0.0 0 1 651.15 404.31   L 651.15 547.81   A 0.38 0.38 0.0 0 1 650.80 548.19   L 623.84 550.11   A 0.38 0.38 0.0 0 1 623.43 549.74   L 620.49 407.21   A 0.38 0.38 0.0 0 1 620.83 406.83   Z"></path>
  <path fill="#000000" d="   M 797.69 406.83   L 827.75 403.91   A 0.31 0.31 0.0 0 1 828.09 404.22   L 828.09 547.87   A 0.31 0.31 0.0 0 1 827.80 548.18   L 800.70 550.12   A 0.31 0.31 0.0 0 1 800.36 549.81   L 797.41 407.15   A 0.31 0.31 0.0 0 1 797.69 406.83   Z"></path>
  <rect fill="#000000" x="-14.69" y="-14.69" transform="translate(583.42,425.15) rotate(44.9)" width="29.38" height="29.38" rx="3.22"></rect>
  <path fill="#000000" d="   M 709.84 542.86   Q 708.70 553.94 706.34 561.08   Q 697.91 586.61 672.85 596.10   Q 659.50 601.15 643.52 601.43   Q 643.02 601.44 642.91 600.95   L 636.22 569.31   A 0.46 0.46 0.0 0 1 636.58 568.76   Q 649.44 566.04 660.88 561.34   C 666.77 558.92 673.34 555.50 677.45 550.44   Q 681.32 545.67 680.62 538.99   Q 677.85 512.49 671.85 482.44   A 0.54 0.53 -13.2 0 1 672.24 481.82   L 700.85 474.18   Q 701.40 474.03 701.53 474.59   Q 702.19 477.23 704.64 487.65   C 706.15 494.08 708.39 502.21 713.41 506.81   Q 716.32 509.47 721.47 510.11   Q 725.64 510.62 731.15 510.63   C 737.63 510.64 749.30 510.68 752.34 505.65   C 753.20 504.22 752.84 502.33 752.70 500.25   Q 751.57 482.82 748.98 463.72   A 0.60 0.60 0.0 0 1 749.47 463.05   L 778.21 458.26   A 0.46 0.45 -8.5 0 1 778.74 458.65   Q 780.78 474.26 782.16 490.25   C 783.55 506.32 782.11 523.51 770.31 535.80   C 759.17 547.40 742.71 549.80 726.64 549.10   Q 716.27 548.65 710.43 542.65   Q 709.91 542.12 709.84 542.86   Z"></path>
  <path fill="#000000" d="   M 755.90 580.42   Q 756.08 580.42 756.19 580.32   Q 763.92 572.53 771.99 564.48   A 3.10 3.09 -44.9 0 1 776.36 564.48   Q 778.66 566.77 791.86 579.96   C 792.59 580.69 792.49 581.09 792.49 582.05   C 792.49 583.01 792.59 583.41 791.86 584.14   Q 778.67 597.33 776.37 599.62   A 3.10 3.09 44.9 0 1 772.00 599.62   Q 763.92 591.58 756.19 583.80   Q 756.08 583.69 755.90 583.69   Q 755.71 583.69 755.60 583.80   Q 747.87 591.58 739.80 599.63   A 3.10 3.09 -44.9 0 1 735.43 599.63   Q 733.13 597.34 719.93 584.16   C 719.20 583.43 719.30 583.02 719.30 582.06   C 719.30 581.11 719.20 580.70 719.93 579.97   Q 733.12 566.78 735.42 564.49   A 3.10 3.09 44.9 0 1 739.79 564.49   Q 747.87 572.54 755.60 580.32   Q 755.71 580.42 755.90 580.42   Z"></path>
  <path fill="#000000" d="   M 453.98 690.56   L 441.88 690.56   A 0.30 0.30 0.0 0 1 441.64 690.44   L 425.18 668.10   A 0.30 0.30 0.0 0 0 424.64 668.27   L 424.64 715.02   A 0.30 0.30 0.0 0 1 424.34 715.32   L 403.63 715.32   A 0.30 0.30 0.0 0 1 403.33 715.02   L 403.33 630.39   A 0.30 0.30 0.0 0 1 403.63 630.09   L 424.68 630.09   A 0.30 0.30 0.0 0 1 424.92 630.21   L 449.18 663.15   A 0.30 0.30 0.0 0 0 449.68 663.14   L 471.37 630.22   A 0.30 0.30 0.0 0 1 471.62 630.09   L 492.52 630.09   A 0.30 0.30 0.0 0 1 492.82 630.39   L 492.82 715.01   A 0.30 0.30 0.0 0 1 492.52 715.31   L 469.86 715.31   A 0.30 0.30 0.0 0 1 469.56 715.01   L 469.56 668.17   A 0.30 0.30 0.0 0 0 469.01 668.00   L 454.23 690.43   A 0.30 0.30 0.0 0 1 453.98 690.56   Z"></path>
  <path fill="#000000" d="   M 544.53 630.09   Q 581.00 630.07 583.68 630.09   Q 584.34 630.10 584.34 630.76   L 584.34 648.86   Q 584.34 649.39 583.81 649.39   L 556.99 649.39   A 0.57 0.57 0.0 0 0 556.42 649.96   L 556.42 714.69   Q 556.42 715.15 555.96 715.17   Q 551.36 715.31 544.58 715.32   Q 537.80 715.32 533.20 715.18   Q 532.74 715.16 532.74 714.70   L 532.67 649.97   A 0.57 0.57 0.0 0 0 532.10 649.40   L 505.28 649.43   Q 504.75 649.44 504.74 648.91   L 504.72 630.81   Q 504.72 630.15 505.39 630.14   Q 508.06 630.12 544.53 630.09   Z"></path>
  <path fill="#000000" d="   M 617.30 715.32   L 596.61 715.32   A 0.32 0.32 0.0 0 1 596.29 715.00   L 596.29 630.41   A 0.32 0.32 0.0 0 1 596.61 630.09   L 617.20 630.09   A 0.32 0.32 0.0 0 1 617.45 630.21   L 655.26 676.26   A 0.32 0.32 0.0 0 0 655.83 676.06   L 655.83 630.41   A 0.32 0.32 0.0 0 1 656.15 630.09   L 676.94 630.09   A 0.32 0.32 0.0 0 1 677.26 630.41   L 677.26 715.00   A 0.32 0.32 0.0 0 1 676.94 715.32   L 657.78 715.32   A 0.32 0.32 0.0 0 1 657.53 715.20   L 618.19 667.29   A 0.32 0.32 0.0 0 0 617.62 667.49   L 617.62 715.00   A 0.32 0.32 0.0 0 1 617.30 715.32   Z"></path>
</svg>
