<?xml version="1.0" encoding="UTF-8" standalone="no"?>
<svg xmlns="http://www.w3.org/2000/svg" version="1.1" viewBox="0.00 0.00 2407.00 1306.00">
  <g stroke-width="2.00" fill="none" stroke-linecap="butt">
    <path stroke="#83424c" vector-effect="non-scaling-stroke" d="   M 975.91 598.40   Q 975.85 598.02 975.25 598.02   Q 810.37 597.95 645.50 597.97   Q 644.51 597.97 644.58 598.40"></path>
    <path stroke="#83424c" vector-effect="non-scaling-stroke" d="   M 508.78 995.23   L 491.53 995.21"></path>
    <path stroke="#83424c" vector-effect="non-scaling-stroke" d="   M 672.85 962.49   Q 667.82 962.76 665.00 962.59   Q 662.90 962.47 661.79 963.68   Q 661.04 964.52 660.95 966.56   Q 660.36 979.85 660.49 993.12"></path>
    <path stroke="#83424c" vector-effect="non-scaling-stroke" d="   M 1086.27 702.47   Q 1084.78 703.36 1084.21 704.95"></path>
    <path stroke="#83424c" vector-effect="non-scaling-stroke" d="   M 1084.10 705.28   Q 1081.62 707.78 1079.73 711.48   Q 1076.16 718.48 1075.75 725.37"></path>
    <path stroke="#83424c" vector-effect="non-scaling-stroke" d="   M 1075.41 726.53   L 1075.28 744.22"></path>
    <path stroke="#83424c" vector-effect="non-scaling-stroke" d="   M 1428.64 802.70   Q 1428.86 801.81 1428.86 801.50   Q 1428.89 788.24 1428.85 739.65   Q 1428.84 725.74 1427.30 719.98   Q 1423.82 706.92 1412.94 697.85   Q 1403.49 689.98 1390.98 688.69"></path>
  </g>
  <circle fill="#f05922" cx="1336.23" cy="361.85" r="31.44"></circle>
  <path fill="#152b76" d="   M 1818.53 349.74   Q 1818.74 349.74 1818.98 349.75   Q 1819.51 349.78 1819.76 350.24   L 2168.25 992.55   A 1.61 1.61 0.0 0 1 2166.84 994.93   L 2012.51 994.93   A 3.13 3.12 75.6 0 1 2009.77 993.30   Q 1920.18 828.21 1820.88 645.11   Q 1819.29 642.19 1818.75 641.37   Q 1818.71 641.32 1818.65 641.30   Q 1818.60 641.28 1818.54 641.28   Q 1818.47 641.28 1818.42 641.30   Q 1818.36 641.32 1818.32 641.37   Q 1817.78 642.19 1816.19 645.11   Q 1716.90 828.21 1627.31 993.31   A 3.13 3.12 -75.6 0 1 1624.57 994.94   L 1470.24 994.94   A 1.61 1.61 0.0 0 1 1468.83 992.56   L 1817.31 350.24   Q 1817.56 349.78 1818.09 349.75   Q 1818.33 349.74 1818.53 349.74   Z"></path>
  <path fill="#152b76" d="   M 975.91 598.40   Q 975.85 598.02 975.25 598.02   Q 810.37 597.95 645.50 597.97   Q 644.51 597.97 644.58 598.40   Q 638.29 597.68 632.51 595.55   Q 631.56 595.21 631.28 594.79   Q 630.35 593.42 630.30 595.06   Q 630.04 602.39 628.48 611.47   Q 626.33 623.93 621.22 634.90   Q 617.43 643.02 610.41 651.66   Q 586.19 681.48 547.82 690.58   Q 544.96 691.26 542.52 691.51   Q 537.76 691.99 537.14 692.11   Q 533.72 692.76 531.37 692.57   Q 530.04 692.46 527.46 692.83   Q 525.46 693.12 523.55 693.12   Q 494.49 693.14 465.44 693.13   Q 463.29 693.13 461.11 692.71   C 459.37 692.38 457.25 692.66 455.34 692.40   Q 434.59 689.56 416.37 676.16   Q 383.86 652.22 372.86 613.49   Q 371.10 607.31 370.08 598.51   Q 369.33 592.11 369.33 583.35   Q 369.33 507.98 369.34 496.20   Q 369.34 495.72 369.81 495.72   L 427.03 495.72   Q 427.59 495.72 427.59 496.28   Q 427.66 527.32 427.61 585.51   Q 427.61 587.81 428.32 593.50   Q 428.96 598.58 429.87 601.35   Q 433.38 612.14 441.46 620.08   Q 451.71 630.16 466.53 632.72   Q 469.73 633.27 472.07 633.09   Q 474.07 632.94 475.77 633.25   Q 477.83 633.63 479.46 633.64   Q 501.61 633.71 521.07 633.64   Q 523.00 633.63 525.40 633.27   Q 527.11 633.01 529.66 633.10   A 2.14 2.02 31.4 0 0 530.60 632.90   Q 531.58 632.42 532.75 632.48   Q 534.43 632.57 535.19 632.34   Q 549.26 628.08 558.89 619.18   Q 568.04 610.72 570.87 597.56   Q 571.25 595.75 571.41 592.45   Q 571.50 590.72 571.71 588.98   Q 571.89 587.54 571.89 585.52   Q 571.89 522.17 571.88 354.48   A 1.32 1.32 0.0 0 1 573.20 353.16   L 629.75 353.16   A 0.42 0.42 0.0 0 1 630.17 353.58   Q 630.18 441.35 630.18 516.25   Q 630.18 519.31 631.06 525.74   Q 632.36 535.23 639.73 537.63   Q 642.20 538.43 652.84 538.43   Q 937.45 538.43 967.49 538.40   Q 977.35 538.39 980.40 528.72   Q 982.09 523.36 981.67 516.59   Q 981.06 506.64 981.06 506.01   Q 981.05 503.77 981.06 489.07   Q 981.06 487.45 981.42 486.00   Q 981.80 484.46 981.58 482.93   Q 981.51 482.47 981.98 482.47   L 1038.49 482.47   A 1.40 1.40 0.0 0 1 1039.89 483.86   Q 1039.94 505.31 1039.88 527.25   Q 1039.87 529.71 1039.11 536.28   Q 1038.50 541.53 1037.56 545.19   Q 1032.68 564.18 1020.32 577.56   Q 1018.89 579.10 1012.85 584.59   Q 999.17 597.02 981.06 597.81   Q 977.34 597.98 975.91 598.40   Z"></path>
  <path fill="#152b76" d="   M 1393.97 543.92   Q 1395.68 543.33 1396.27 543.15   Q 1402.32 541.30 1404.27 535.41   Q 1404.60 534.39 1404.91 533.36   Q 1405.17 532.47 1405.17 531.17   Q 1405.21 505.92 1405.19 482.76   A 0.31 0.31 0.0 0 1 1405.50 482.45   L 1463.19 482.45   Q 1463.44 482.45 1463.44 482.70   Q 1463.49 507.66 1463.47 527.99   Q 1463.46 541.49 1462.25 547.92   Q 1458.63 567.17 1448.02 580.76   Q 1433.68 599.14 1410.34 603.02   Q 1406.80 603.61 1402.06 603.66   C 1398.04 603.69 1394.53 603.81 1390.99 603.32   Q 1372.44 600.72 1358.23 589.98   Q 1351.31 584.74 1349.85 583.37   Q 1349.24 582.79 1348.59 583.33   Q 1347.60 584.17 1343.56 587.55   Q 1336.22 593.70 1328.39 597.61   Q 1311.18 606.23 1292.97 602.68   Q 1286.00 601.32 1278.32 597.49   Q 1269.72 593.19 1265.01 589.26   Q 1258.59 583.90 1253.21 579.06   A 0.76 0.76 0.0 0 0 1252.26 579.00   Q 1246.61 582.92 1240.83 587.06   Q 1235.69 590.73 1227.23 593.19   Q 1221.77 594.77 1215.13 595.52   Q 1209.52 596.15 1202.86 596.17   Q 1173.64 596.26 1136.79 596.18   Q 1135.68 596.18 1133.28 595.90   Q 1130.89 595.63 1129.76 595.53   Q 1122.59 594.94 1112.25 592.25   Q 1094.32 587.59 1083.91 573.11   Q 1073.51 558.65 1070.88 540.14   Q 1070.44 537.04 1070.53 535.64   Q 1070.57 535.16 1070.33 534.74   Q 1070.16 534.44 1070.07 534.13   Q 1069.91 533.56 1069.91 533.38   Q 1069.90 461.51 1069.90 354.50   A 1.33 1.33 0.0 0 1 1071.23 353.17   L 1127.01 353.17   A 1.17 1.17 0.0 0 1 1128.18 354.34   Q 1128.18 476.08 1128.18 508.00   Q 1128.18 512.90 1129.37 525.29   Q 1129.97 531.55 1132.14 534.07   Q 1135.89 538.43 1141.32 538.43   Q 1176.88 538.44 1200.40 538.44   Q 1206.90 538.43 1209.71 537.08   Q 1214.52 534.77 1216.16 529.31   C 1216.45 528.35 1216.53 526.95 1216.86 525.72   Q 1217.08 524.92 1217.08 524.28   Q 1217.04 510.76 1217.07 483.84   A 1.40 1.39 -0.0 0 1 1218.47 482.45   L 1274.68 482.45   A 1.25 1.24 89.8 0 1 1275.92 483.69   Q 1275.97 490.75 1275.85 498.77   Q 1275.85 498.83 1275.46 508.72   Q 1275.18 515.86 1275.57 523.26   Q 1276.36 538.35 1289.54 542.67   Q 1291.53 543.32 1294.35 543.67   Q 1298.57 544.18 1299.41 544.24   Q 1299.92 544.27 1300.37 544.01   C 1301.58 543.30 1302.97 543.87 1304.45 543.26   Q 1312.98 539.73 1312.84 529.25   Q 1312.78 524.33 1312.93 483.00   Q 1312.93 482.45 1313.48 482.45   L 1368.97 482.45   A 0.45 0.44 -0.0 0 1 1369.42 482.89   Q 1369.45 504.69 1369.38 520.55   Q 1369.36 527.74 1370.71 531.29   Q 1374.22 540.46 1384.27 543.79   Q 1385.91 544.34 1387.88 544.25   Q 1389.64 544.17 1391.53 544.19   Q 1393.11 544.21 1393.97 543.92   Z"></path>
  <circle fill="#152b76" cx="934.81" cy="426.55" r="31.51"></circle>
  <path fill="#152b76" d="   M 974.99 431.24   Q 974.83 431.03 974.75 430.89   Q 974.67 430.75 974.67 430.59   Q 974.68 426.05 974.67 422.70   A 1.47 1.44 -29.4 0 1 974.91 421.87   Q 975.45 421.03 975.20 420.33   A 0.99 0.97 -47.4 0 1 975.18 419.72   Q 978.04 408.93 985.81 402.46   Q 996.30 393.74 1010.57 395.47   C 1022.60 396.93 1032.90 405.96 1036.29 417.50   C 1036.82 419.31 1036.83 421.11 1037.35 422.84   Q 1037.71 424.04 1037.71 424.98   Q 1037.60 444.39 1021.16 454.38   C 1020.02 455.08 1018.46 455.46 1017.59 455.86   Q 1013.17 457.89 1008.76 457.66   Q 1008.27 457.63 1007.83 457.87   Q 1006.68 458.48 1005.35 458.19   Q 1003.40 457.77 1003.04 457.75   Q 998.15 457.55 993.87 455.63   Q 981.04 449.89 976.05 436.24   Q 975.34 434.31 975.30 432.11   Q 975.29 431.62 974.99 431.24   Z"></path>
  <circle fill="#152b76" cx="1300.61" cy="426.56" r="31.51"></circle>
  <circle fill="#152b76" cx="1371.91" cy="426.57" r="31.51"></circle>
  <path fill="#f05922" d="   M 975.91 598.40   L 644.58 598.40   Q 644.51 597.97 645.50 597.97   Q 810.37 597.95 975.25 598.02   Q 975.85 598.02 975.91 598.40   Z"></path>
  <path fill="#152b76" d="   M 912.24 901.91   Q 912.01 902.03 911.50 902.04   Q 898.79 902.25 887.13 901.14   Q 868.19 899.32 850.99 893.44   C 846.53 891.92 842.02 889.46 838.92 887.68   Q 821.42 877.62 812.70 858.35   Q 808.90 849.96 808.02 842.59   Q 807.98 842.29 807.61 838.83   Q 807.34 836.29 807.34 835.16   Q 807.32 692.94 807.34 657.30   A 0.55 0.55 0.0 0 1 807.89 656.75   Q 818.72 656.73 829.41 660.46   C 834.58 662.26 840.83 665.98 842.58 671.48   Q 843.19 673.40 843.18 679.14   Q 843.13 746.85 843.20 763.75   C 843.21 765.58 843.73 767.55 843.73 769.43   Q 843.73 804.86 843.68 824.75   Q 843.67 830.24 844.52 835.65   Q 845.45 841.54 847.43 846.09   Q 852.66 858.11 864.90 864.39   Q 869.67 866.83 879.29 868.97   Q 885.15 870.28 896.51 870.76   Q 906.54 871.20 921.51 870.08   Q 935.24 869.05 946.97 862.46   Q 951.37 859.99 955.89 855.36   Q 960.03 851.12 962.31 846.10   Q 964.93 840.31 965.32 834.37   Q 965.46 832.24 965.71 829.11   Q 966.03 825.16 966.04 823.87   Q 966.05 786.85 966.05 729.39   Q 966.05 725.78 967.24 723.09   Q 969.38 718.27 972.79 715.69   Q 985.17 706.31 1000.95 706.37   A 0.31 0.31 0.0 0 1 1001.26 706.68   Q 1001.26 714.48 1001.23 832.75   Q 1001.23 833.43 1001.06 833.97   Q 1000.84 834.64 1000.83 835.13   Q 1000.32 862.51 980.03 880.05   Q 966.69 891.58 948.33 896.33   Q 929.65 901.17 913.14 901.57   Q 912.90 901.58 912.24 901.91   Z"></path>
  <path fill="#152b76" d="   M 1250.95 885.06   Q 1250.65 885.24 1249.99 885.29   Q 1247.51 885.45 1239.11 885.17   Q 1238.13 885.13 1235.93 884.62   A 1.71 1.71 0.0 0 0 1233.83 886.25   Q 1233.73 890.52 1233.99 894.41   Q 1234.44 901.12 1234.45 902.67   Q 1234.50 911.98 1233.19 921.00   Q 1231.73 931.00 1227.98 940.26   Q 1218.28 964.29 1196.01 977.50   Q 1184.69 984.22 1171.38 988.12   Q 1149.86 994.43 1132.24 995.37   Q 1127.94 995.60 1106.13 995.50   Q 1105.71 995.50 1105.39 995.67   Q 1105.23 995.76 1105.06 995.87   A 1.34 1.34 0.0 0 1 1104.31 996.10   L 1051.47 996.10   A 1.12 1.11 87.8 0 1 1050.36 995.07   Q 1049.75 986.42 1052.45 978.45   Q 1054.15 973.42 1057.11 969.86   Q 1058.52 968.16 1060.53 967.31   Q 1062.03 966.68 1064.60 966.67   Q 1079.49 966.63 1103.34 966.66   C 1110.26 966.67 1116.48 965.98 1122.98 966.10   Q 1127.58 966.19 1133.53 965.46   Q 1141.89 964.45 1144.04 964.05   C 1158.04 961.49 1172.55 955.18 1181.97 944.87   Q 1190.95 935.05 1194.41 921.25   Q 1195.81 915.68 1196.08 913.69   Q 1197.40 903.80 1196.76 892.57   A 0.51 0.51 0.0 0 0 1196.03 892.13   Q 1184.12 897.53 1170.55 900.28   Q 1164.12 901.59 1155.86 902.49   Q 1148.73 903.26 1142.12 903.20   Q 1137.99 903.17 1128.33 903.18   Q 1126.17 903.19 1122.18 902.88   Q 1120.93 902.78 1116.02 902.41   Q 1101.30 901.30 1086.06 896.13   Q 1070.96 891.01 1059.10 880.18   Q 1045.03 867.36 1040.53 847.74   Q 1039.13 841.65 1039.33 838.89   Q 1039.36 838.43 1039.05 838.08   Q 1038.73 837.72 1038.73 837.50   Q 1038.76 786.43 1038.72 734.01   Q 1038.72 732.54 1039.07 729.51   Q 1039.19 728.46 1039.41 725.01   Q 1039.90 717.05 1041.25 710.93   Q 1042.76 704.09 1045.90 697.65   Q 1055.84 677.26 1076.47 667.96   Q 1095.22 659.50 1118.55 657.44   Q 1146.70 654.95 1173.65 660.48   Q 1181.66 662.12 1190.91 665.81   Q 1206.97 672.20 1217.85 684.89   Q 1228.58 697.41 1232.18 713.98   Q 1233.53 720.18 1233.35 731.83   Q 1233.18 742.15 1233.31 753.52   C 1233.33 754.94 1233.82 756.28 1233.82 757.53   Q 1233.77 806.83 1233.82 853.75   A 2.97 2.96 -79.0 0 0 1235.65 856.48   Q 1236.84 856.98 1239.34 857.07   Q 1239.74 857.09 1239.96 857.22   Q 1240.08 857.29 1240.25 857.41   Q 1240.51 857.59 1240.83 857.59   Q 1246.08 857.60 1248.73 857.54   Q 1250.22 857.51 1254.72 855.46   Q 1257.79 854.07 1259.95 851.99   Q 1267.85 844.37 1269.27 833.08   Q 1269.49 831.38 1269.85 829.03   Q 1270.15 827.08 1270.16 824.95   Q 1270.23 764.47 1270.18 734.10   C 1270.17 730.87 1270.91 727.99 1270.68 724.73   Q 1270.58 723.35 1271.15 721.85   C 1271.53 720.87 1271.29 719.19 1271.47 717.88   Q 1274.15 698.57 1286.46 684.47   C 1301.55 667.17 1325.60 659.86 1347.78 657.81   Q 1365.28 656.20 1370.00 656.78   Q 1373.63 657.22 1377.18 657.33   Q 1382.64 657.51 1384.36 657.68   Q 1398.43 659.12 1406.57 660.99   Q 1412.56 662.37 1419.96 665.02   Q 1426.58 667.39 1432.56 670.95   Q 1458.39 686.33 1463.98 716.51   Q 1464.48 719.20 1464.77 723.47   Q 1465.08 727.95 1465.09 728.15   Q 1465.24 730.37 1465.24 732.84   Q 1465.18 771.55 1465.22 826.41   Q 1465.22 828.53 1464.79 831.55   Q 1464.56 833.21 1464.60 835.01   Q 1464.63 836.35 1464.45 838.46   Q 1462.57 860.96 1447.06 877.58   Q 1444.57 880.24 1439.23 884.31   Q 1434.72 887.75 1430.63 889.91   Q 1415.60 897.84 1397.57 900.60   Q 1391.34 901.55 1384.64 902.19   Q 1379.73 902.66 1373.40 902.62   Q 1369.56 902.60 1362.11 902.62   Q 1357.44 902.64 1352.92 902.27   Q 1346.25 901.72 1343.75 901.42   Q 1329.23 899.68 1315.46 894.77   Q 1295.02 887.49 1282.38 870.22   Q 1280.93 868.24 1280.36 867.78   Q 1279.81 867.33 1279.38 867.91   Q 1275.74 872.76 1271.77 875.99   Q 1263.23 882.94 1251.81 884.80   Q 1251.22 884.89 1250.95 885.06   Z   M 1086.27 702.47   Q 1084.78 703.36 1084.21 704.95   L 1084.10 705.28   Q 1081.62 707.78 1079.73 711.48   Q 1076.16 718.48 1075.75 725.37   Q 1075.96 726.36 1075.41 726.53   L 1075.28 744.22   Q 1075.00 783.45 1075.21 822.77   Q 1075.28 834.52 1076.37 839.13   Q 1078.36 847.50 1083.48 854.25   Q 1093.49 867.47 1109.37 870.84   Q 1112.42 871.49 1115.24 871.45   Q 1118.99 871.40 1121.12 871.62   Q 1124.88 872.02 1129.92 872.02   Q 1152.09 872.01 1154.74 871.92   Q 1173.59 871.23 1186.50 856.57   Q 1190.38 852.15 1192.67 846.93   Q 1195.51 840.45 1196.06 835.83   Q 1196.85 829.06 1196.85 824.25   Q 1196.86 791.45 1196.86 727.61   Q 1196.86 726.78 1196.66 725.91   Q 1196.48 725.13 1196.33 724.34   Q 1196.23 723.85 1196.33 723.36   Q 1196.47 722.65 1196.11 722.13   Q 1195.89 721.81 1195.80 721.42   Q 1193.38 711.16 1186.61 703.41   Q 1177.88 693.43 1165.27 689.85   Q 1159.96 688.34 1148.61 688.45   Q 1140.77 688.52 1113.87 688.48   Q 1112.81 688.48 1112.19 688.78   C 1110.88 689.40 1109.43 688.88 1107.99 689.54   Q 1106.79 690.08 1105.44 690.29   Q 1104.51 690.43 1102.89 691.11   Q 1093.38 695.09 1086.27 702.47   Z   M 1428.64 802.70   Q 1428.86 801.81 1428.86 801.50   Q 1428.89 788.24 1428.85 739.65   Q 1428.84 725.74 1427.30 719.98   Q 1423.82 706.92 1412.94 697.85   Q 1403.49 689.98 1390.98 688.69   Q 1389.95 688.67 1388.75 688.66   Q 1365.74 688.45 1356.51 688.48   Q 1343.58 688.52 1338.12 690.07   Q 1326.17 693.46 1317.64 703.12   Q 1308.07 713.95 1306.96 728.31   Q 1306.63 732.50 1306.63 732.81   Q 1306.38 759.66 1306.64 775.24   C 1306.67 776.78 1307.14 778.55 1307.13 780.25   Q 1307.04 815.41 1307.13 829.10   Q 1307.17 834.54 1308.07 838.38   C 1311.81 854.48 1324.59 866.52 1339.92 870.15   Q 1345.43 871.45 1359.76 871.44   Q 1378.71 871.43 1380.65 871.43   Q 1386.39 871.44 1389.87 870.95   Q 1396.92 869.96 1398.98 869.19   Q 1419.73 861.45 1426.40 841.70   Q 1428.32 836.01 1428.67 827.07   Q 1429.16 814.89 1428.64 802.70   Z"></path>
  <path fill="#152b76" d="   M 508.78 995.23   L 491.53 995.21   C 488.19 994.80 484.15 994.97 481.48 994.81   Q 464.65 993.80 449.59 990.39   Q 434.03 986.86 420.17 980.17   C 409.21 974.88 399.12 967.87 391.54 958.50   Q 380.12 944.37 377.24 925.98   Q 376.31 920.05 376.29 906.00   Q 376.25 873.42 376.21 860.57   Q 376.21 858.81 375.87 853.17   Q 375.68 850.02 375.68 845.75   Q 375.66 816.25 375.68 787.04   Q 375.68 786.25 376.46 786.12   C 378.52 785.77 380.52 786.54 382.21 786.52   Q 384.25 786.50 394.00 788.28   Q 403.14 789.96 410.05 795.36   Q 412.10 796.96 413.44 799.28   Q 414.38 800.92 414.38 804.06   Q 414.30 861.52 414.37 889.35   Q 414.39 894.16 414.73 901.64   Q 415.01 907.81 415.06 913.94   Q 415.07 916.00 417.11 924.85   Q 422.03 946.23 441.24 956.07   Q 452.56 961.87 465.64 963.64   Q 483.33 966.02 489.75 966.06   Q 505.35 966.17 511.75 966.06   C 512.40 966.05 513.17 965.65 513.93 965.61   Q 525.17 965.12 535.99 963.13   Q 548.41 960.84 558.73 955.48   Q 579.04 944.92 586.12 923.43   Q 588.13 917.33 589.07 910.22   Q 589.75 905.01 589.75 896.75   Q 589.79 795.15 589.74 692.73   Q 589.74 692.23 590.10 691.88   Q 591.01 690.99 592.02 690.51   Q 614.35 679.92 626.37 658.46   A 0.96 0.95 13.0 0 1 627.18 657.96   Q 628.31 657.90 628.32 658.99   Q 628.49 679.01 628.47 854.01   Q 628.47 856.01 630.97 858.77   Q 632.58 860.55 640.46 863.68   Q 651.54 868.07 663.19 869.07   Q 666.19 869.32 671.72 869.62   Q 677.66 869.94 680.26 869.71   Q 685.36 869.26 690.50 869.14   Q 694.21 869.06 703.73 867.24   Q 713.47 865.37 721.06 860.79   Q 724.92 858.46 730.09 852.41   Q 733.26 848.70 735.83 840.41   Q 738.28 832.52 738.10 821.42   C 738.06 819.06 738.64 817.22 738.64 815.09   Q 738.70 769.94 738.65 730.90   Q 738.65 730.48 738.85 730.16   Q 738.93 730.02 739.08 729.80   A 1.15 1.13 -30.9 0 0 739.27 729.08   C 738.77 723.53 742.89 717.79 747.21 714.72   Q 758.78 706.51 773.74 706.41   A 1.29 1.29 0.0 0 1 775.04 707.70   Q 775.02 765.52 775.04 822.74   Q 775.04 825.30 774.70 828.25   C 774.44 830.60 774.68 833.43 774.35 835.59   C 773.67 840.08 773.53 844.64 772.28 848.87   Q 765.09 873.13 744.55 885.30   Q 729.36 894.29 711.74 897.43   Q 704.12 898.79 697.82 899.52   Q 697.55 899.55 694.16 899.65   C 692.44 899.70 690.87 900.31 689.28 900.33   Q 681.58 900.39 668.63 900.34   Q 666.70 900.33 664.43 899.92   Q 662.11 899.50 660.21 899.73   Q 659.22 899.85 657.91 899.46   C 656.75 899.12 655.66 899.27 654.70 899.15   Q 641.97 897.58 629.44 893.88   A 0.78 0.78 0.0 0 0 628.44 894.63   Q 628.42 901.25 628.45 912.79   Q 628.46 916.28 628.08 918.75   Q 627.53 922.42 627.14 924.59   Q 623.29 946.22 607.37 962.39   Q 598.89 971.00 588.71 976.66   Q 578.53 982.32 572.65 984.33   Q 572.37 984.43 562.12 987.95   Q 559.91 988.71 558.11 989.08   Q 556.00 989.51 554.02 990.00   Q 540.88 993.24 529.38 993.91   C 528.89 993.93 528.67 994.11 528.23 994.31   Q 527.94 994.43 527.78 994.42   Q 524.38 994.19 522.08 994.53   Q 519.41 994.92 516.41 994.88   Q 512.54 994.82 508.78 995.23   Z"></path>
  <path fill="#f05922" d="   M 1428.64 802.70   L 1428.32 730.08   Q 1428.31 727.65 1427.97 725.24   Q 1426.73 716.44 1421.75 708.69   Q 1411.09 692.08 1390.98 688.69   Q 1403.49 689.98 1412.94 697.85   Q 1423.82 706.92 1427.30 719.98   Q 1428.84 725.74 1428.85 739.65   Q 1428.89 788.24 1428.86 801.50   Q 1428.86 801.81 1428.64 802.70   Z"></path>
  <path fill="#f05922" d="   M 1086.27 702.47   Q 1085.63 703.95 1084.21 704.95   Q 1084.78 703.36 1086.27 702.47   Z"></path>
  <path fill="#f05922" d="   M 1084.10 705.28   Q 1077.42 714.57 1075.75 725.37   Q 1076.16 718.48 1079.73 711.48   Q 1081.62 707.78 1084.10 705.28   Z"></path>
  <path fill="#f05922" d="   M 1075.41 726.53   Q 1076.19 735.46 1075.28 744.22   L 1075.41 726.53   Z"></path>
  <ellipse fill="#f05922" cx="0.00" cy="0.00" transform="translate(1818.47,897.18) rotate(90.4)" rx="97.30" ry="96.00"></ellipse>
  <path fill="#f05922" d="   M 672.85 962.49   Q 667.82 962.76 665.00 962.59   Q 662.90 962.47 661.79 963.68   Q 661.04 964.52 660.95 966.56   Q 660.36 979.85 660.49 993.12   Q 659.75 973.84 660.18 965.50   Q 660.23 964.49 661.33 963.42   Q 662.11 962.66 663.38 962.44   Q 668.06 961.59 672.85 962.49   Z"></path>
  <rect fill="#152b76" x="701.77" y="962.06" width="36.36" height="34.04" rx="3.90"></rect>
  <path fill="#152b76" d="   M 660.49 993.12   Q 660.36 979.85 660.95 966.56   Q 661.04 964.52 661.79 963.68   Q 662.90 962.47 665.00 962.59   Q 667.82 962.76 672.85 962.49   L 693.11 962.59   A 3.26 3.25 89.5 0 1 696.34 965.77   Q 696.69 979.73 696.00 992.55   A 3.10 3.10 0.0 0 1 692.93 995.48   Q 677.32 995.60 664.16 995.48   Q 662.80 995.47 662.03 994.86   Q 661.21 994.22 660.49 993.12   Z"></path>
  <path fill="#152b76" d="   M 887.28 990.74   C 886.84 989.19 886.42 988.05 886.43 986.72   Q 886.45 980.11 886.39 965.85   Q 886.38 963.17 889.05 963.17   Q 901.66 963.17 912.75 963.17   Q 914.34 963.17 915.23 963.47   Q 916.11 963.77 916.91 963.77   Q 917.49 963.77 918.59 964.22   Q 920.83 965.12 921.97 967.11   Q 922.72 968.44 922.73 971.21   Q 922.78 982.64 922.76 995.11   Q 922.76 995.53 922.34 995.52   Q 909.59 995.51 901.74 995.55   Q 900.46 995.55 899.42 995.89   Q 898.18 996.30 897.10 996.02   Q 895.59 995.64 893.12 995.49   Q 890.78 995.35 888.60 993.48   Q 887.89 992.86 887.28 990.74   Z"></path>
  <path fill="#f05922" d="   M 508.78 995.23   Q 500.18 995.96 491.53 995.21   L 508.78 995.23   Z"></path>
</svg>
